<?xml version="1.0" standalone="yes"?>

<svg version="1.1" viewBox="0.0 0.0 960.0 720.0" fill="none" stroke="none" stroke-linecap="square" stroke-miterlimit="10" xmlns="http://www.w3.org/2000/svg" xmlns:xlink="http://www.w3.org/1999/xlink"><clipPath id="p.0"><path d="m0 0l960.0 0l0 720.0l-960.0 0l0 -720.0z" clip-rule="nonzero"></path></clipPath><g clip-path="url(#p.0)"><path fill="#000000" fill-opacity="0.0" d="m0 0l960.0 0l0 720.0l-960.0 0z" fill-rule="nonzero"></path><path fill="#a4c2f4" d="m65.656166 352.75592l0 0c0 -145.03781 182.60437 -262.6142 407.85828 -262.6142l0 0c225.25388 0 407.85825 117.57638 407.85825 262.6142l0 0c0 145.03778 -182.60437 262.61414 -407.85825 262.61414l0 0c-225.2539 0 -407.85828 -117.576355 -407.85828 -262.61414z" fill-rule="nonzero"></path><path stroke="#000000" stroke-width="1.0" stroke-linejoin="round" stroke-linecap="butt" d="m65.656166 352.75592l0 0c0 -145.03781 182.60437 -262.6142 407.85828 -262.6142l0 0c225.25388 0 407.85825 117.57638 407.85825 262.6142l0 0c0 145.03778 -182.60437 262.61414 -407.85825 262.61414l0 0c-225.2539 0 -407.85828 -117.576355 -407.85828 -262.61414z" fill-rule="nonzero"></path><path fill="#000000" d="m203.49008 192.2259l2.625 0l0.5 -0.5l1.875 1.875l-0.875 0.625q-1.5 2.875 -4.125 6.125q3.125 1.0 5.5 2.625l-1.375 2.75q-2.125 -1.75 -4.125 -2.875l0 12.375l-2.5 0l0 -12.375q-2.25 2.0 -4.625 3.375l-1.125 -2.5q6.0 -3.25 9.375 -9.125l-8.25 0l0 -2.375l4.625 0l0 -5.375l2.375 0q1.0 0.125 0.125 0.75l0 4.625zm13.625 -4.625q1.25 0.25 0.125 1.0l0 6.625l5.75 0l0 2.75l-5.75 0l0 13.0l6.875 0l0 2.75l-17.125 0l0 -2.75l7.375 0l0 -13.0l-5.375 0l0 -2.75l5.375 0l0 -7.625l2.75 0zm31.875 8.875q-4.375 -2.375 -7.125 -7.125q-2.75 4.5 -6.375 7.125l13.5 0zm5.875 2.625q-2.125 -0.5 -5.625 -2.5l0 2.625l-14.125 0l0 -2.5q-3.375 2.375 -6.375 3.25l-1.125 -3.0q8.75 -2.375 13.0 -10.25l2.625 0.375q1.0 0.125 0.125 0.75q4.0 6.0 12.75 8.25l-1.25 3.0zm-2.75 15.875q-1.0 -1.375 -2.375 -2.625l-18.125 2.0q-0.625 0.625 -1.125 0.25l-0.875 -3.125l5.125 -0.25l3.5 -6.375l-9.0 0l0 -2.75l25.625 0l0 2.75l-13.5 0l-3.75 6.25l10.25 -0.75q-1.625 -1.5 -3.625 -3.0l2.25 -1.5q6.0 4.5 8.25 7.5l-2.625 1.625zm8.125 -2.125q2.875 -2.375 5.0 -5.875l2.125 1.375q0.875 0.625 -0.375 0.75q-2.0 3.25 -4.625 5.875l-2.125 -2.125zm24.25 -8.0l-4.375 0q-0.25 6.625 -6.25 10.625l-1.75 -2.125q5.5 -3.375 5.5 -9.0l0 -16.25l9.375 0l0 25.0q0 2.0 -2.0 2.0l-2.625 0l-0.25 -2.75l1.875 0q0.5 0 0.5 -0.5l0 -7.0zm-11.875 7.25q-1.5 -1.75 -3.5 -3.375l1.875 -1.75q2.25 1.625 3.625 3.125l-2.0 2.0zm11.875 -14.375l-4.375 0l0 4.75l4.375 0l0 -4.75zm0 -7.25l-4.375 0l0 4.875l4.375 0l0 -4.875zm-13.5 11.25l-5.0 0l0 2.625l5.0 0l0 -2.625zm0 -4.375l-5.0 0l0 2.375l5.0 0l0 -2.375zm0 -4.25l-5.0 0l0 2.25l5.0 0l0 -2.25zm5.25 -2.0l0 2.0l-3.125 0l0 11.25l3.5 0l0 2.0l-16.75 0l0 -2.0l4.0 0l0 -11.25l-3.25 0l0 -2.0l3.25 0l0 -4.25l2.0 0q1.25 0.125 0.125 0.75l0 3.5l5.0 0l0 -4.25l2.0 0q1.25 0.125 0.125 0.75l0 3.5l3.125 0zm15.875 2.75q4.125 -2.5 6.375 -6.75l2.125 1.25q1.0 0.5 -0.25 0.75q-2.875 4.625 -6.875 7.125l-1.375 -2.375zm15.25 17.625q-1.375 -1.875 -3.75 -3.875l1.875 -1.875q2.875 2.125 3.875 3.75l-2.0 2.0zm3.625 -24.75q1.0 0.125 0.125 0.75l0 3.125l6.5 0l0 2.375l-6.5 0l0 3.5l9.375 0l0 2.375l-5.375 0l0 3.5l4.5 0l0 2.375l-4.5 0l0 8.5q0 2.0 -2.0 2.0l-2.875 0l-0.375 -2.375l2.25 0q0.5 0 0.5 -0.5l0 -7.625l-11.0 0l0 -2.375l11.0 0l0 -3.5l-11.375 0l0 -2.375l7.375 0l0 -3.5l-5.75 0l0 -2.375l5.75 0l0 -3.875l2.375 0zm-9.375 7.75q1.0 0.375 -0.25 0.75q-1.125 2.0 -2.375 4.0l0 16.125l-2.5 0l0 -12.875q-1.75 1.875 -3.125 2.75l-1.375 -2.75q4.375 -3.0 7.375 -9.375l2.25 1.375z" fill-rule="nonzero"></path><path fill="#ffe599" d="m158.20499 410.25113l0 0c0 -113.2749 137.3393 -205.10236 306.75592 -205.10236l0 0c169.4166 0 306.7559 91.82745 306.7559 205.10236l0 0c0 113.27493 -137.3393 205.10239 -306.7559 205.10239l0 0c-169.41663 0 -306.75592 -91.82745 -306.75592 -205.10239z" fill-rule="nonzero"></path><path stroke="#000000" stroke-width="1.0" stroke-linejoin="round" stroke-linecap="butt" d="m158.20499 410.25113l0 0c0 -113.2749 137.3393 -205.10236 306.75592 -205.10236l0 0c169.4166 0 306.7559 91.82745 306.7559 205.10236l0 0c0 113.27493 -137.3393 205.10239 -306.7559 205.10239l0 0c-169.41663 0 -306.75592 -91.82745 -306.75592 -205.10239z" fill-rule="nonzero"></path><path fill="#000000" d="m272.6767 305.47113q-4.875 6.875 -12.25 9.875l-1.375 -2.375q8.375 -3.75 12.875 -11.25l2.125 0.625q1.5 0.5 0.125 1.125q3.375 5.125 12.75 8.875l-1.5 2.5q-8.625 -3.5 -12.75 -9.375zm1.5 4.875q1.25 0.25 0.125 1.0l0 17.375l-2.875 0l0 -18.375l2.75 0zm29.125 -8.0l2.75 0q1.25 0.25 0.125 1.0l0 5.125q0.875 12.0 12.75 17.125l-1.5 3.125q-8.625 -3.75 -12.25 -13.625q-2.625 9.375 -11.875 13.625l-1.875 -2.75q11.875 -4.625 11.875 -17.125l0 -6.5zm37.0 -1.75l2.875 0.75q0.5 0.5 -0.375 0.625l-1.625 2.375l6.875 0l0 8.625l-11.375 0l0 2.5l12.625 0l0 9.375l-2.5 0l0 -0.875l-10.125 0l0 1.125l-2.5 0l0 -20.75l4.375 0l1.75 -3.75zm-17.5 26.0q2.875 -0.875 5.0 -2.25l0 -8.125l-4.25 0l0 -2.375l6.75 0l0 10.25q2.125 2.25 6.75 2.25l14.5 0l-0.375 2.375l-15.375 0q-4.375 0 -6.625 -2.5q-2.625 2.5 -5.0 3.5l-1.375 -3.125zm22.75 -16.0l0 -3.875l-8.875 0l0 3.875l8.875 0zm1.25 11.0l0 -3.75l-10.125 0l0 3.75l10.125 0zm-17.625 -13.0q-2.25 -2.75 -4.375 -4.375l1.875 -2.125q2.625 1.625 4.625 4.375l-2.125 2.125zm25.875 15.125q7.625 -4.125 12.375 -8.25l0 -6.125l-12.25 0l0 -2.375l12.25 0l0 -5.625l2.375 0q1.0 0.125 0.125 0.75l0 4.875l6.5 0q-1.5 -1.5 -4.0 -2.625l2.0 -2.125q2.25 0.875 4.375 2.875l-2.0 1.875l5.25 0l0 2.375l-12.125 0l0 1.0q0.5 2.125 2.625 5.375q2.75 -2.0 5.125 -4.875l2.375 2.125q0.125 0.625 -0.625 0.375q-1.75 1.75 -5.25 4.25q2.75 3.625 8.875 6.375l-1.625 3.125q-7.625 -3.75 -11.5 -11.5l0 11.875q0 2.0 -2.0 2.0l-3.125 0l-0.5 -2.75l2.625 0q0.5 0 0.5 -0.5l0 -7.375q-3.25 3.0 -9.875 7.25q0.25 0.75 -0.375 0.625l-2.125 -3.0zm6.875 -6.0q-2.0 -2.5 -4.125 -4.125l2.125 -2.125q2.25 1.25 4.375 3.75l-2.375 2.5z" fill-rule="nonzero"></path><path fill="#b6d7a8" d="m272.79047 471.58673l0 0c0 -79.39853 90.473755 -143.76376 202.07874 -143.76376l0 0c111.60504 0 202.07874 64.365234 202.07874 143.76376l0 0c0 79.39856 -90.473694 143.7638 -202.07874 143.7638l0 0c-111.60498 0 -202.07874 -64.365234 -202.07874 -143.7638z" fill-rule="nonzero"></path><path stroke="#000000" stroke-width="1.0" stroke-linejoin="round" stroke-linecap="butt" d="m272.79047 471.58673l0 0c0 -79.39853 90.473755 -143.76376 202.07874 -143.76376l0 0c111.60504 0 202.07874 64.365234 202.07874 143.76376l0 0c0 79.39856 -90.473694 143.7638 -202.07874 143.7638l0 0c-111.60498 0 -202.07874 -64.365234 -202.07874 -143.7638z" fill-rule="nonzero"></path><path fill="#000000" d="m437.74423 457.80673q1.25 0.5 0 1.0q3.25 2.0 5.875 4.375l-1.75 2.625q-3.625 -3.875 -5.5 -5.0q-0.875 1.75 -3.25 4.75l7.875 0l0 2.375l-3.375 0l0 2.5l5.375 0l0 -1.75l12.0 0l0.375 -0.375l1.875 2.0q0.75 0.625 -0.375 0.75l-5.75 5.125l0 8.0q0 1.75 -1.625 1.75l-2.375 0l-0.875 -2.375l1.875 0q0.5 0 0.5 -0.625l0 -9.75l2.125 0.25l2.25 -2.375l-10.0 0l0 1.75l-5.375 0l0 3.25l4.625 0l0 9.875l-2.5 0l0 -1.25l-6.375 0l0 1.625l-2.5 0l0 -10.25l4.25 0l0 -3.25l-6.0 0l0 -2.375l6.0 0l0 -2.5l-3.625 0l0 -0.75q-0.875 1.0 -1.75 1.625l-1.625 -2.5q4.25 -3.625 7.0 -9.5l2.625 1.0zm5.75 1.0l9.875 0l0.5 -0.5l1.75 1.5q1.375 0.75 -0.25 1.0l-4.0 4.375q0.75 0.5 1.375 1.125l-1.75 1.875q-2.125 -2.0 -5.5 -4.25l1.25 -1.625q1.625 0.75 2.375 1.375l2.375 -2.5l-8.0 0l0 -2.375zm-3.75 19.625l-6.375 0l0 3.875l6.375 0l0 -3.875zm30.375 -18.5q8.75 -0.625 15.375 -2.125l1.5 2.25q0.25 0.75 -0.75 0.25q-2.875 0.5 -5.875 0.875l0 3.875l8.625 0l0 2.375l-8.625 0l0 3.625l6.0 0l0 9.25l-14.375 0l0 -9.25l5.875 0l0 -3.625l-8.25 0l0 -2.375l8.25 0l0 -3.625q-4.0 0.375 -7.25 0.625l-0.5 -2.125zm4.375 18.0l9.375 0l0 -4.5l-9.375 0l0 4.5zm-9.25 -3.0l-4.5 0l0 -2.375l7.0 0l0 7.375q3.0 2.625 8.125 2.625l13.5 0l-0.75 2.375l-12.75 0q-6.0 0 -9.25 -3.0q-1.75 1.875 -4.25 4.0l-1.75 -2.75q2.5 -1.25 4.625 -3.25l0 -5.0zm-2.375 -10.0q2.5 1.125 4.875 2.75l-1.375 2.375q-2.125 -1.5 -4.875 -2.875l1.375 -2.25zm1.125 -6.625q2.5 1.0 4.875 2.75l-1.375 2.375q-2.125 -1.5 -4.875 -2.875l1.375 -2.25zm54.99997 4.0l-21.62497 0l0 18.5l22.62497 0l0 2.75l-22.62497 0l0 1.75l-2.875 0l0 -25.75l24.49997 0l0 2.75zm-10.2499695 7.125q2.375 -2.875 3.9999695 -6.25l2.5 1.375q1.125 0.375 -0.125 0.875q-1.125 2.5 -3.7499695 5.75q2.9999695 1.875 6.9999695 5.375l-2.125 2.625q-3.5 -3.125 -6.8749695 -5.75q-3.0 3.125 -9.125 6.5l-1.75 -2.5q5.5 -3.0 8.25 -5.75q-2.625 -2.0 -6.875 -4.375l1.625 -2.125q3.875 2.0 7.25 4.25z" fill-rule="nonzero"></path></g></svg>

